<svg xmlns="http://www.w3.org/2000/svg" viewBox="0 0 512 512"><path d="M375.979 333.397l-68.779-9.131-51.2 76.8-51.2-76.8-68.779 9.131c-33.903 4.531-59.221 33.459-59.221 67.669V512h358.4V401.067c0-34.21-25.318-63.138-59.221-67.67z" fill="#2e6aa3"/><path fill="#fedac6" d="M307.2 324.267V256H204.8v68.267l51.2 76.8z"/><path d="M76.8 400.384V512h34.133V341.333A68.27 68.27 0 0 0 76.8 400.384z" fill="#245e8f"/><path fill="#fedac6" d="M110.933 452.267h34.133V512h-34.133z"/><path fill="#f5c4b0" d="M76.8 452.267h34.133V512H76.8z"/><path fill="#fedac6" d="M366.933 452.267H435.2V512h-68.267z"/><path d="M307.2 310.784V256H204.8v54.784c38.4 18.005 64 18.005 102.4 0z" fill="#f5c4b0"/><path d="M349.867 128h-8.533v51.2h8.533c14.14 0 25.6-11.46 25.6-25.6s-11.461-25.6-25.6-25.6z" fill="#fedac6"/><path d="M136.533 162.133c0 14.14 11.46 25.6 25.6 25.6h8.533v-51.2h-8.533c-14.139 0-25.6 11.461-25.6 25.6z" fill="#f5c4b0"/><path d="M325.291 59.733H186.197l-24.064 80.725 7.083 76.032a42.686 42.686 0 0 0 10.24 24.405l42.667 49.067a25.586 25.586 0 0 0 19.285 8.533h27.989a25.583 25.583 0 0 0 19.285-8.533l42.667-49.067a42.689 42.689 0 0 0 10.24-24.405l8.277-79.957 2.048-6.059-26.623-70.741z" fill="#fedac6"/><path d="M176.811 59.733c-16.068.034-29.073 13.09-29.03 29.167a29.15 29.15 0 0 0 1.468 9.062l12.885 38.571v3.925l24.064-80.725h-9.387zm185.941 38.23c5.043-15.258-3.243-31.718-18.5-36.762a29.183 29.183 0 0 0-9.062-1.468h-9.899l26.624 70.741 10.837-32.511zm-38.485-38.23c0-28.279-22.921-51.2-51.2-51.2h-128c0 28.279 22.921 51.2 51.2 51.2h128z" fill="#fecb66"/><path d="M281.856 61.833c-4.693-18.517-15.693-35.021-30.976-46.473l10.24-13.653c18.389 13.781 31.633 33.647 37.291 55.927l-16.555 4.199zm-42.658 0c-4.693-18.509-15.693-35.012-30.976-46.464l10.231-13.662c18.398 13.79 31.642 33.655 37.291 55.936l-16.546 4.19zm-42.667 0c-4.693-18.509-15.693-35.012-30.976-46.464l10.231-13.662c18.398 13.79 31.642 33.655 37.291 55.936l-16.546 4.19z" fill="#f5b776"/><path d="M208.128 196.267L204.8 59.733h-17.067l-25.6 76.8 8.533 70.315a68.263 68.263 0 0 0 23.296 51.2s34.731 38.059 39.765 40.619l-18.773-53.504a121.101 121.101 0 0 1-6.826-48.896z" fill="#f5c4b0"/><path d="M349.867 187.733h-8.533v-17.067h8.533c9.412 0 17.067-7.654 17.067-17.067s-7.654-17.067-17.067-17.067h-8.533v-17.067h8.533c18.825 0 34.133 15.309 34.133 34.133s-15.309 34.135-34.133 34.135zm-179.2 8.534h-8.533c-18.825 0-34.133-15.309-34.133-34.133S143.309 128 162.133 128h8.533v17.067h-8.533c-9.412 0-17.067 7.654-17.067 17.067 0 9.412 7.654 17.067 17.067 17.067h8.533v17.066zm93.866 8.533h-25.6a8.53 8.53 0 0 1-8.389-10.078l11.349-61.867 16.785 3.081-9.506 51.797h15.36V204.8zm5.044 34.133H230.4v-17.067h39.168c5.41 0 10.709-2.202 14.524-6.033l12.083 12.058c-7.108 7.117-16.546 11.042-26.598 11.042z"/><path d="M241.741 307.2c-9.643 0-18.901-4.13-25.378-11.375l-42.743-49.161c-7.159-8.286-11.409-18.415-12.305-29.303l-7.578-79.044-12.578-37.649c-3.166-9.574-2.415-19.772 2.108-28.749 4.514-8.977 12.262-15.659 21.803-18.816a37.498 37.498 0 0 1 11.716-1.903H335.19c20.77.051 37.606 16.964 37.564 37.717a37.373 37.373 0 0 1-1.911 11.725l-12.578 37.666-7.33 78.976c-.887 10.803-5.146 20.932-12.279 29.193l-42.94 49.263c-6.554 7.33-15.812 11.46-25.523 11.46h-28.452zm-64.93-238.933c-2.159 0-4.318.358-6.391 1.041-5.214 1.724-9.446 5.367-11.913 10.283-2.475 4.907-2.876 10.479-1.161 15.693l12.877 38.545c.205.614.341 1.246.401 1.894l7.68 80.128c.606 7.373 3.439 14.123 8.201 19.635l42.65 49.05c3.191 3.567 7.697 5.649 12.783 5.598h28.203c4.915 0 9.549-2.065 12.791-5.692l42.846-49.152c4.745-5.487 7.578-12.237 8.166-19.499l7.433-80.043a8.6 8.6 0 0 1 .41-1.92l12.885-38.571a20.715 20.715 0 0 0 1.033-6.383c.017-11.332-9.199-20.582-20.531-20.608H176.811z"/><circle cx="204.8" cy="145.067" r="17.067"/><circle cx="298.667" cy="145.067" r="17.067"/><path d="M195.84 62.441l-25.613 76.793-16.189-5.4 25.614-76.793z"/><path d="M341.871 130.995l-25.6-68.267a8.539 8.539 0 0 1-.538-2.995c0-23.526-19.14-42.667-42.667-42.667H154.462c3.959 19.447 21.197 34.133 41.805 34.133h25.6v17.067h-25.6c-32.939 0-59.733-26.795-59.733-59.733A8.536 8.536 0 0 1 145.067 0h128c32.401 0 58.854 25.933 59.708 58.129l25.079 66.876-15.983 5.99zM85.333 512H68.267V401.067c0-38.315 28.638-71.04 66.628-76.126l61.372-8.149v-43.725h17.067v51.2a8.532 8.532 0 0 1-7.407 8.457l-68.779 9.131c-29.542 3.951-51.814 29.406-51.814 59.213V512zm358.4 0h-17.067V401.067c0-29.807-22.272-55.262-51.823-59.204l-68.77-9.131a8.546 8.546 0 0 1-7.407-8.465v-51.2h17.067v43.725l61.363 8.149c37.999 5.077 66.637 37.811 66.637 76.126V512z"/><path d="M136.533 426.667H153.6V512h-17.067z"/><path d="M76.8 443.733h68.267V460.8H76.8zm281.6-17.066h17.067V512H358.4z"/><path d="M366.933 443.733H435.2V460.8h-68.267zM256 409.6a8.545 8.545 0 0 1-7.1-3.797l-51.2-76.8 14.199-9.463 44.1 66.142 44.1-66.15 14.199 9.464-51.2 76.8A8.528 8.528 0 0 1 256 409.6z"/><path d="M204.8 426.667a8.447 8.447 0 0 1-4.343-1.195 8.506 8.506 0 0 1-4.053-5.82l-17.067-93.867 16.794-3.046 15.309 84.181 41.865-13.952 5.402 16.179-51.2 17.067a8.251 8.251 0 0 1-2.707.453z"/><path d="M307.2 426.667a8.378 8.378 0 0 1-2.697-.444l-51.2-17.067 5.402-16.179 41.865 13.952 15.309-84.181 16.785 3.046-17.067 93.867a8.562 8.562 0 0 1-4.045 5.82 8.557 8.557 0 0 1-4.352 1.186z"/><path d="M247.467 401.067h17.067v68.267h-17.067zM226.133 460.8c-7.057 0-12.8-5.743-12.8-12.8s5.743-12.8 12.8-12.8 12.8 5.743 12.8 12.8-5.743 12.8-12.8 12.8zm0-17.067c-2.355 0-4.267 1.92-4.267 4.267s1.911 4.267 4.267 4.267 4.267-1.92 4.267-4.267-1.911-4.267-4.267-4.267z"/></svg>